<svg xmlns="http://www.w3.org/2000/svg" viewBox="0 0 800 1500" font-family="'Inter', -apple-system, system-ui, sans-serif">
  <defs>
    <linearGradient id="grad-title" x1="0%" y1="0%" x2="100%" y2="0%">
      <stop offset="0%" style="stop-color:#6ee7b7"/>
      <stop offset="50%" style="stop-color:#3b82f6"/>
      <stop offset="100%" style="stop-color:#a78bfa"/>
    </linearGradient>
  </defs>

  <!-- Background -->
  <rect width="800" height="1500" fill="#0d0d15" rx="12"/>

  <!-- Title -->
  <text x="400" y="50" text-anchor="middle" fill="url(#grad-title)" font-size="28" font-weight="800">How TurboQuant Works</text>
  <text x="400" y="75" text-anchor="middle" fill="#666" font-size="13">Compress 384-dim vectors to bits — and still find what you need</text>

  <!-- ===== SECTION 1: QJL ===== -->
  <rect x="30" y="100" width="740" height="420" rx="12" fill="#12121a" stroke="#222" stroke-width="1"/>
  <rect x="30" y="100" width="740" height="3" rx="1.5" fill="#2d6a4f"/>

  <text x="60" y="132" fill="#6ee7b7" font-size="16" font-weight="700">Stage 1: QJL — Fast Pre-Filter</text>
  <rect x="280" y="118" width="70" height="20" rx="10" fill="#16362b"/>
  <text x="315" y="132" text-anchor="middle" fill="#6ee7b7" font-size="10" font-weight="600">1 bit/dim</text>

  <!-- Original vector -->
  <text x="400" y="162" text-anchor="middle" fill="#7cb8ff" font-size="12" font-weight="600">Original Vector (384 floats = 1,536 bytes)</text>

  <!-- Float cells -->
  <g opacity="0"><animate attributeName="opacity" from="0" to="1" dur="0.5s" begin="0.1s" fill="freeze"/>
    <rect x="65" y="172" width="32" height="22" rx="3" fill="#1e3a5f" stroke="#2a5a8f" stroke-width="0.5"/>
    <text x="81" y="187" text-anchor="middle" fill="#7cb8ff" font-size="7" font-weight="600">0.42</text>
    <rect x="101" y="172" width="32" height="22" rx="3" fill="#1e3a5f" stroke="#2a5a8f" stroke-width="0.5"/>
    <text x="117" y="187" text-anchor="middle" fill="#7cb8ff" font-size="7" font-weight="600">-0.17</text>
    <rect x="137" y="172" width="32" height="22" rx="3" fill="#1e3a5f" stroke="#2a5a8f" stroke-width="0.5"/>
    <text x="153" y="187" text-anchor="middle" fill="#7cb8ff" font-size="7" font-weight="600">0.88</text>
    <rect x="173" y="172" width="32" height="22" rx="3" fill="#1e3a5f" stroke="#2a5a8f" stroke-width="0.5"/>
    <text x="189" y="187" text-anchor="middle" fill="#7cb8ff" font-size="7" font-weight="600">-0.63</text>
    <rect x="209" y="172" width="32" height="22" rx="3" fill="#1e3a5f" stroke="#2a5a8f" stroke-width="0.5"/>
    <text x="225" y="187" text-anchor="middle" fill="#7cb8ff" font-size="7" font-weight="600">0.15</text>
    <rect x="245" y="172" width="32" height="22" rx="3" fill="#1e3a5f" stroke="#2a5a8f" stroke-width="0.5"/>
    <text x="261" y="187" text-anchor="middle" fill="#7cb8ff" font-size="7" font-weight="600">-0.91</text>
    <rect x="281" y="172" width="32" height="22" rx="3" fill="#1e3a5f" stroke="#2a5a8f" stroke-width="0.5"/>
    <text x="297" y="187" text-anchor="middle" fill="#7cb8ff" font-size="7" font-weight="600">0.33</text>
    <rect x="317" y="172" width="32" height="22" rx="3" fill="#1e3a5f" stroke="#2a5a8f" stroke-width="0.5"/>
    <text x="333" y="187" text-anchor="middle" fill="#7cb8ff" font-size="7" font-weight="600">-0.44</text>
    <rect x="353" y="172" width="32" height="22" rx="3" fill="#1e3a5f" stroke="#2a5a8f" stroke-width="0.5"/>
    <text x="369" y="187" text-anchor="middle" fill="#7cb8ff" font-size="7" font-weight="600">0.72</text>
    <rect x="389" y="172" width="32" height="22" rx="3" fill="#1e3a5f" stroke="#2a5a8f" stroke-width="0.5"/>
    <text x="405" y="187" text-anchor="middle" fill="#7cb8ff" font-size="7" font-weight="600">-0.28</text>
    <rect x="425" y="172" width="32" height="22" rx="3" fill="#1e3a5f" stroke="#2a5a8f" stroke-width="0.5"/>
    <text x="441" y="187" text-anchor="middle" fill="#7cb8ff" font-size="7" font-weight="600">0.56</text>
    <rect x="461" y="172" width="32" height="22" rx="3" fill="#1e3a5f" stroke="#2a5a8f" stroke-width="0.5"/>
    <text x="477" y="187" text-anchor="middle" fill="#7cb8ff" font-size="7" font-weight="600">-0.05</text>
    <rect x="497" y="172" width="32" height="22" rx="3" fill="#1e3a5f" stroke="#2a5a8f" stroke-width="0.5"/>
    <text x="513" y="187" text-anchor="middle" fill="#7cb8ff" font-size="7" font-weight="600">0.39</text>
    <rect x="533" y="172" width="32" height="22" rx="3" fill="#1e3a5f" stroke="#2a5a8f" stroke-width="0.5"/>
    <text x="549" y="187" text-anchor="middle" fill="#7cb8ff" font-size="7" font-weight="600">-0.77</text>
    <rect x="569" y="172" width="32" height="22" rx="3" fill="#1e3a5f" stroke="#2a5a8f" stroke-width="0.5"/>
    <text x="585" y="187" text-anchor="middle" fill="#7cb8ff" font-size="7" font-weight="600">0.61</text>
    <rect x="605" y="172" width="32" height="22" rx="3" fill="#1e3a5f" stroke="#2a5a8f" stroke-width="0.5"/>
    <text x="621" y="187" text-anchor="middle" fill="#7cb8ff" font-size="7" font-weight="600">-0.34</text>
    <text x="660" y="187" fill="#555" font-size="14">. . .</text>
    <text x="720" y="187" fill="#555" font-size="9">x384</text>
  </g>

  <!-- Arrows and steps -->
  <g opacity="0"><animate attributeName="opacity" from="0" to="1" dur="0.4s" begin="0.8s" fill="freeze"/>
    <text x="400" y="215" text-anchor="middle" fill="#3b82f6" font-size="18">&#8595;</text>
    <text x="400" y="232" text-anchor="middle" fill="#888" font-size="11">Multiply by random Gaussian matrix R (seeded, deterministic)</text>
    <text x="400" y="255" text-anchor="middle" fill="#3b82f6" font-size="18">&#8595;</text>
    <text x="400" y="272" text-anchor="middle" fill="#888" font-size="11">Keep only the sign: positive &#8594; 1, negative &#8594; 0</text>
    <text x="400" y="295" text-anchor="middle" fill="#3b82f6" font-size="18">&#8595;</text>
  </g>

  <!-- Compressed bits -->
  <g opacity="0"><animate attributeName="opacity" from="0" to="1" dur="0.5s" begin="1.5s" fill="freeze"/>
    <text x="400" y="318" text-anchor="middle" fill="#6ee7b7" font-size="12" font-weight="600">Compressed: 384 bits = 48 bytes (32x smaller!)</text>
    <rect x="65" y="328" width="22" height="22" rx="3" fill="#2d6a4f" stroke="#40916c" stroke-width="0.5"/><text x="76" y="343" text-anchor="middle" fill="#6ee7b7" font-size="9" font-weight="700">1</text>
    <rect x="91" y="328" width="22" height="22" rx="3" fill="#1a1a2e" stroke="#333" stroke-width="0.5"/><text x="102" y="343" text-anchor="middle" fill="#555" font-size="9" font-weight="700">0</text>
    <rect x="117" y="328" width="22" height="22" rx="3" fill="#2d6a4f" stroke="#40916c" stroke-width="0.5"/><text x="128" y="343" text-anchor="middle" fill="#6ee7b7" font-size="9" font-weight="700">1</text>
    <rect x="143" y="328" width="22" height="22" rx="3" fill="#1a1a2e" stroke="#333" stroke-width="0.5"/><text x="154" y="343" text-anchor="middle" fill="#555" font-size="9" font-weight="700">0</text>
    <rect x="169" y="328" width="22" height="22" rx="3" fill="#2d6a4f" stroke="#40916c" stroke-width="0.5"/><text x="180" y="343" text-anchor="middle" fill="#6ee7b7" font-size="9" font-weight="700">1</text>
    <rect x="195" y="328" width="22" height="22" rx="3" fill="#1a1a2e" stroke="#333" stroke-width="0.5"/><text x="206" y="343" text-anchor="middle" fill="#555" font-size="9" font-weight="700">0</text>
    <rect x="221" y="328" width="22" height="22" rx="3" fill="#2d6a4f" stroke="#40916c" stroke-width="0.5"/><text x="232" y="343" text-anchor="middle" fill="#6ee7b7" font-size="9" font-weight="700">1</text>
    <rect x="247" y="328" width="22" height="22" rx="3" fill="#1a1a2e" stroke="#333" stroke-width="0.5"/><text x="258" y="343" text-anchor="middle" fill="#555" font-size="9" font-weight="700">0</text>
    <rect x="273" y="328" width="22" height="22" rx="3" fill="#2d6a4f" stroke="#40916c" stroke-width="0.5"/><text x="284" y="343" text-anchor="middle" fill="#6ee7b7" font-size="9" font-weight="700">1</text>
    <rect x="299" y="328" width="22" height="22" rx="3" fill="#1a1a2e" stroke="#333" stroke-width="0.5"/><text x="310" y="343" text-anchor="middle" fill="#555" font-size="9" font-weight="700">0</text>
    <rect x="325" y="328" width="22" height="22" rx="3" fill="#2d6a4f" stroke="#40916c" stroke-width="0.5"/><text x="336" y="343" text-anchor="middle" fill="#6ee7b7" font-size="9" font-weight="700">1</text>
    <rect x="351" y="328" width="22" height="22" rx="3" fill="#1a1a2e" stroke="#333" stroke-width="0.5"/><text x="362" y="343" text-anchor="middle" fill="#555" font-size="9" font-weight="700">0</text>
    <rect x="377" y="328" width="22" height="22" rx="3" fill="#2d6a4f" stroke="#40916c" stroke-width="0.5"/><text x="388" y="343" text-anchor="middle" fill="#6ee7b7" font-size="9" font-weight="700">1</text>
    <rect x="403" y="328" width="22" height="22" rx="3" fill="#2d6a4f" stroke="#40916c" stroke-width="0.5"/><text x="414" y="343" text-anchor="middle" fill="#6ee7b7" font-size="9" font-weight="700">1</text>
    <rect x="429" y="328" width="22" height="22" rx="3" fill="#1a1a2e" stroke="#333" stroke-width="0.5"/><text x="440" y="343" text-anchor="middle" fill="#555" font-size="9" font-weight="700">0</text>
    <rect x="455" y="328" width="22" height="22" rx="3" fill="#2d6a4f" stroke="#40916c" stroke-width="0.5"/><text x="466" y="343" text-anchor="middle" fill="#6ee7b7" font-size="9" font-weight="700">1</text>
    <text x="500" y="343" fill="#555" font-size="14">. . .</text>
  </g>

  <!-- Hamming distance -->
  <g opacity="0"><animate attributeName="opacity" from="0" to="1" dur="0.5s" begin="2.2s" fill="freeze"/>
    <text x="400" y="385" text-anchor="middle" fill="#aaa" font-size="12" font-weight="600">Comparing = XOR + popcount (Hamming distance)</text>
    <text x="60" y="414" fill="#6ee7b7" font-size="10">A:</text>
    <rect x="80" y="400" width="24" height="22" rx="3" fill="#2d6a4f" stroke="#40916c" stroke-width="0.5"/><text x="92" y="415" text-anchor="middle" fill="#6ee7b7" font-size="10" font-weight="700">1</text>
    <rect x="108" y="400" width="24" height="22" rx="3" fill="#1a1a2e" stroke="#333" stroke-width="0.5"/><text x="120" y="415" text-anchor="middle" fill="#555" font-size="10" font-weight="700">0</text>
    <rect x="136" y="400" width="24" height="22" rx="3" fill="#2d6a4f" stroke="#40916c" stroke-width="0.5"/><text x="148" y="415" text-anchor="middle" fill="#6ee7b7" font-size="10" font-weight="700">1</text>
    <rect x="164" y="400" width="24" height="22" rx="3" fill="#2d6a4f" stroke="#40916c" stroke-width="0.5"/><text x="176" y="415" text-anchor="middle" fill="#6ee7b7" font-size="10" font-weight="700">1</text>
    <rect x="192" y="400" width="24" height="22" rx="3" fill="#1a1a2e" stroke="#333" stroke-width="0.5"/><text x="204" y="415" text-anchor="middle" fill="#555" font-size="10" font-weight="700">0</text>
    <rect x="220" y="400" width="24" height="22" rx="3" fill="#2d6a4f" stroke="#40916c" stroke-width="0.5"/><text x="232" y="415" text-anchor="middle" fill="#6ee7b7" font-size="10" font-weight="700">1</text>
    <rect x="248" y="400" width="24" height="22" rx="3" fill="#1a1a2e" stroke="#333" stroke-width="0.5"/><text x="260" y="415" text-anchor="middle" fill="#555" font-size="10" font-weight="700">0</text>
    <rect x="276" y="400" width="24" height="22" rx="3" fill="#2d6a4f" stroke="#40916c" stroke-width="0.5"/><text x="288" y="415" text-anchor="middle" fill="#6ee7b7" font-size="10" font-weight="700">1</text>
    <text x="60" y="444" fill="#60a5fa" font-size="10">B:</text>
    <rect x="80" y="430" width="24" height="22" rx="3" fill="#2d6a4f" stroke="#40916c" stroke-width="0.5"/><text x="92" y="445" text-anchor="middle" fill="#6ee7b7" font-size="10" font-weight="700">1</text>
    <rect x="108" y="430" width="24" height="22" rx="3" fill="#1a1a2e" stroke="#333" stroke-width="0.5"/><text x="120" y="445" text-anchor="middle" fill="#555" font-size="10" font-weight="700">0</text>
    <rect x="136" y="430" width="24" height="22" rx="3" fill="#5c1a1a" stroke="#7f1d1d" stroke-width="0.5"/><text x="148" y="445" text-anchor="middle" fill="#f87171" font-size="10" font-weight="700">0</text>
    <rect x="164" y="430" width="24" height="22" rx="3" fill="#2d6a4f" stroke="#40916c" stroke-width="0.5"/><text x="176" y="445" text-anchor="middle" fill="#6ee7b7" font-size="10" font-weight="700">1</text>
    <rect x="192" y="430" width="24" height="22" rx="3" fill="#1a1a2e" stroke="#333" stroke-width="0.5"/><text x="204" y="445" text-anchor="middle" fill="#555" font-size="10" font-weight="700">0</text>
    <rect x="220" y="430" width="24" height="22" rx="3" fill="#5c1a1a" stroke="#7f1d1d" stroke-width="0.5"/><text x="232" y="445" text-anchor="middle" fill="#f87171" font-size="10" font-weight="700">0</text>
    <rect x="248" y="430" width="24" height="22" rx="3" fill="#1a1a2e" stroke="#333" stroke-width="0.5"/><text x="260" y="445" text-anchor="middle" fill="#555" font-size="10" font-weight="700">0</text>
    <rect x="276" y="430" width="24" height="22" rx="3" fill="#2d6a4f" stroke="#40916c" stroke-width="0.5"/><text x="288" y="445" text-anchor="middle" fill="#6ee7b7" font-size="10" font-weight="700">1</text>
    <!-- Diff markers -->
    <text x="92" y="475" text-anchor="middle" fill="#6ee7b7" font-size="11">=</text>
    <text x="120" y="475" text-anchor="middle" fill="#6ee7b7" font-size="11">=</text>
    <text x="148" y="475" text-anchor="middle" fill="#f87171" font-size="11" font-weight="700">&#8800;</text>
    <text x="176" y="475" text-anchor="middle" fill="#6ee7b7" font-size="11">=</text>
    <text x="204" y="475" text-anchor="middle" fill="#6ee7b7" font-size="11">=</text>
    <text x="232" y="475" text-anchor="middle" fill="#f87171" font-size="11" font-weight="700">&#8800;</text>
    <text x="260" y="475" text-anchor="middle" fill="#6ee7b7" font-size="11">=</text>
    <text x="288" y="475" text-anchor="middle" fill="#6ee7b7" font-size="11">=</text>
    <rect x="136" y="398" width="24" height="56" rx="3" fill="none" stroke="#f87171" stroke-width="1.5" stroke-dasharray="4,3">
      <animate attributeName="stroke-opacity" values="0.3;1;0.3" dur="2s" repeatCount="indefinite"/>
    </rect>
    <rect x="220" y="398" width="24" height="56" rx="3" fill="none" stroke="#f87171" stroke-width="1.5" stroke-dasharray="4,3">
      <animate attributeName="stroke-opacity" values="0.3;1;0.3" dur="2s" repeatCount="indefinite"/>
    </rect>
    <text x="400" y="414" fill="#aaa" font-size="11">Hamming distance = </text>
    <text x="530" y="414" fill="#fbbf24" font-size="14" font-weight="800">2</text>
    <text x="400" y="434" fill="#666" font-size="10">Low distance = similar vectors. 1 CPU instruction per 64 bits.</text>
  </g>

  <!-- ===== SECTION 2: TurboQuant_mse ===== -->
  <rect x="30" y="540" width="740" height="400" rx="12" fill="#12121a" stroke="#222" stroke-width="1"/>
  <rect x="30" y="540" width="740" height="3" rx="1.5" fill="#3b82f6"/>

  <text x="60" y="572" fill="#60a5fa" font-size="16" font-weight="700">Stage 2: TurboQuant_mse — Accurate Re-Ranking</text>
  <rect x="368" y="558" width="60" height="20" rx="10" fill="#1e3050"/>
  <text x="398" y="572" text-anchor="middle" fill="#60a5fa" font-size="10" font-weight="600">3 bit/dim</text>

  <!-- Step 1: Normalize + Rotate -->
  <g opacity="0"><animate attributeName="opacity" from="0" to="1" dur="0.5s" begin="2.8s" fill="freeze"/>
    <text x="400" y="600" text-anchor="middle" fill="#aaa" font-size="11" font-weight="600">1. Normalize vector (store L2 norm), then rotate with random orthogonal matrix Q</text>
    <text x="400" y="616" text-anchor="middle" fill="#666" font-size="10">Q is generated via Gram-Schmidt on a Gaussian matrix (seeded, deterministic)</text>

    <!-- Rotated coordinates shown as small boxes -->
    <text x="400" y="640" text-anchor="middle" fill="#7cb8ff" font-size="10">After rotation, each coordinate &#8776; N(0, 1/384)</text>
    <rect x="100" y="648" width="32" height="22" rx="3" fill="#1e3a5f" stroke="#2a5a8f" stroke-width="0.5"/>
    <text x="116" y="663" text-anchor="middle" fill="#7cb8ff" font-size="7">.021</text>
    <rect x="136" y="648" width="32" height="22" rx="3" fill="#1e3a5f" stroke="#2a5a8f" stroke-width="0.5"/>
    <text x="152" y="663" text-anchor="middle" fill="#7cb8ff" font-size="7">-.038</text>
    <rect x="172" y="648" width="32" height="22" rx="3" fill="#1e3a5f" stroke="#2a5a8f" stroke-width="0.5"/>
    <text x="188" y="663" text-anchor="middle" fill="#7cb8ff" font-size="7">.055</text>
    <rect x="208" y="648" width="32" height="22" rx="3" fill="#1e3a5f" stroke="#2a5a8f" stroke-width="0.5"/>
    <text x="224" y="663" text-anchor="middle" fill="#7cb8ff" font-size="7">-.012</text>
    <rect x="244" y="648" width="32" height="22" rx="3" fill="#1e3a5f" stroke="#2a5a8f" stroke-width="0.5"/>
    <text x="260" y="663" text-anchor="middle" fill="#7cb8ff" font-size="7">.047</text>
    <rect x="280" y="648" width="32" height="22" rx="3" fill="#1e3a5f" stroke="#2a5a8f" stroke-width="0.5"/>
    <text x="296" y="663" text-anchor="middle" fill="#7cb8ff" font-size="7">-.063</text>
    <rect x="316" y="648" width="32" height="22" rx="3" fill="#1e3a5f" stroke="#2a5a8f" stroke-width="0.5"/>
    <text x="332" y="663" text-anchor="middle" fill="#7cb8ff" font-size="7">.008</text>
    <rect x="352" y="648" width="32" height="22" rx="3" fill="#1e3a5f" stroke="#2a5a8f" stroke-width="0.5"/>
    <text x="368" y="663" text-anchor="middle" fill="#7cb8ff" font-size="7">-.041</text>
    <text x="400" y="663" fill="#555" font-size="12">. . .</text>
  </g>

  <!-- Step 2: Quantize with codebook -->
  <g opacity="0"><animate attributeName="opacity" from="0" to="1" dur="0.5s" begin="3.5s" fill="freeze"/>
    <text x="400" y="695" text-anchor="middle" fill="#3b82f6" font-size="14">&#8595;</text>
    <text x="400" y="712" text-anchor="middle" fill="#aaa" font-size="11" font-weight="600">2. Quantize each coordinate with Lloyd-Max codebook (8 centroids for 3-bit)</text>

    <!-- Show the codebook as a number line -->
    <line x1="100" y1="740" x2="700" y2="740" stroke="#333" stroke-width="1"/>
    <!-- Centroids as dots -->
    <circle cx="130" cy="740" r="4" fill="#f87171"><animate attributeName="r" values="2;4;2" dur="2s" repeatCount="indefinite"/></circle>
    <text x="130" y="758" text-anchor="middle" fill="#f87171" font-size="7">-2.15</text>
    <circle cx="200" cy="740" r="4" fill="#fb923c"/>
    <text x="200" y="758" text-anchor="middle" fill="#fb923c" font-size="7">-1.34</text>
    <circle cx="270" cy="740" r="4" fill="#fbbf24"/>
    <text x="270" y="758" text-anchor="middle" fill="#fbbf24" font-size="7">-0.76</text>
    <circle cx="340" cy="740" r="4" fill="#a3e635"/>
    <text x="340" y="758" text-anchor="middle" fill="#a3e635" font-size="7">-0.25</text>
    <circle cx="460" cy="740" r="4" fill="#34d399"/>
    <text x="460" y="758" text-anchor="middle" fill="#34d399" font-size="7">+0.25</text>
    <circle cx="530" cy="740" r="4" fill="#38bdf8"/>
    <text x="530" y="758" text-anchor="middle" fill="#38bdf8" font-size="7">+0.76</text>
    <circle cx="600" cy="740" r="4" fill="#818cf8"/>
    <text x="600" y="758" text-anchor="middle" fill="#818cf8" font-size="7">+1.34</text>
    <circle cx="670" cy="740" r="4" fill="#c084fc"><animate attributeName="r" values="2;4;2" dur="2s" repeatCount="indefinite"/></circle>
    <text x="670" y="758" text-anchor="middle" fill="#c084fc" font-size="7">+2.15</text>
    <!-- Label -->
    <text x="400" y="730" text-anchor="middle" fill="#666" font-size="9">Lloyd-Max optimal centroids for N(0,1), scaled by 1/&#8730;d</text>
    <text x="400" y="775" text-anchor="middle" fill="#888" font-size="10">Each coordinate snaps to its nearest centroid &#8594; 3-bit index (0-7)</text>
  </g>

  <!-- Step 3: Pack indices -->
  <g opacity="0"><animate attributeName="opacity" from="0" to="1" dur="0.5s" begin="4.2s" fill="freeze"/>
    <text x="400" y="800" text-anchor="middle" fill="#3b82f6" font-size="14">&#8595;</text>
    <text x="400" y="818" text-anchor="middle" fill="#aaa" font-size="11" font-weight="600">3. Pack 3-bit indices into bytes</text>

    <!-- 3-bit index boxes -->
    <rect x="120" y="828" width="28" height="22" rx="3" fill="#1e3050" stroke="#3b82f6" stroke-width="0.5"/>
    <text x="134" y="843" text-anchor="middle" fill="#60a5fa" font-size="9" font-weight="700">5</text>
    <rect x="152" y="828" width="28" height="22" rx="3" fill="#1e3050" stroke="#3b82f6" stroke-width="0.5"/>
    <text x="166" y="843" text-anchor="middle" fill="#60a5fa" font-size="9" font-weight="700">2</text>
    <rect x="184" y="828" width="28" height="22" rx="3" fill="#1e3050" stroke="#3b82f6" stroke-width="0.5"/>
    <text x="198" y="843" text-anchor="middle" fill="#60a5fa" font-size="9" font-weight="700">6</text>
    <rect x="216" y="828" width="28" height="22" rx="3" fill="#1e3050" stroke="#3b82f6" stroke-width="0.5"/>
    <text x="230" y="843" text-anchor="middle" fill="#60a5fa" font-size="9" font-weight="700">3</text>
    <rect x="248" y="828" width="28" height="22" rx="3" fill="#1e3050" stroke="#3b82f6" stroke-width="0.5"/>
    <text x="262" y="843" text-anchor="middle" fill="#60a5fa" font-size="9" font-weight="700">6</text>
    <rect x="280" y="828" width="28" height="22" rx="3" fill="#1e3050" stroke="#3b82f6" stroke-width="0.5"/>
    <text x="294" y="843" text-anchor="middle" fill="#60a5fa" font-size="9" font-weight="700">1</text>
    <rect x="312" y="828" width="28" height="22" rx="3" fill="#1e3050" stroke="#3b82f6" stroke-width="0.5"/>
    <text x="326" y="843" text-anchor="middle" fill="#60a5fa" font-size="9" font-weight="700">4</text>
    <rect x="344" y="828" width="28" height="22" rx="3" fill="#1e3050" stroke="#3b82f6" stroke-width="0.5"/>
    <text x="358" y="843" text-anchor="middle" fill="#60a5fa" font-size="9" font-weight="700">2</text>
    <text x="390" y="843" fill="#555" font-size="12">. . .</text>
    <text x="440" y="843" fill="#555" font-size="9">x384</text>

    <text x="400" y="872" text-anchor="middle" fill="#60a5fa" font-size="11" font-weight="600">384 x 3 bits = 144 bytes + 4 bytes norm = 148 bytes (10x smaller!)</text>
  </g>

  <!-- Note about similarity -->
  <g opacity="0"><animate attributeName="opacity" from="0" to="1" dur="0.5s" begin="4.8s" fill="freeze"/>
    <rect x="55" y="888" width="690" height="38" rx="8" fill="#16161e"/>
    <line x1="55" y1="888" x2="55" y2="926" stroke="#3b82f6" stroke-width="3"/>
    <text x="72" y="904" fill="#aaa" font-size="10">Similarity = dot product in rotated domain via codebook lookups. Since Q is orthogonal,</text>
    <text x="72" y="918" fill="#aaa" font-size="10">&#10216;x, y&#10217; = &#10216;Qx, Qy&#10217;. No matrix multiply at search time — just table lookups!</text>
  </g>

  <!-- ===== SECTION 3: Two-Stage Pipeline ===== -->
  <rect x="30" y="955" width="740" height="200" rx="12" fill="#12121a" stroke="#222" stroke-width="1"/>
  <rect x="30" y="955" width="740" height="3" rx="1.5" fill="#a78bfa"/>

  <text x="60" y="987" fill="#a78bfa" font-size="16" font-weight="700">Two-Stage Search Pipeline</text>

  <g opacity="0"><animate attributeName="opacity" from="0" to="1" dur="0.5s" begin="5.2s" fill="freeze"/>
    <rect x="55" y="1005" width="120" height="60" rx="10" fill="#1e293b" stroke="#334155" stroke-width="1"/>
    <text x="115" y="1033" text-anchor="middle" fill="#60a5fa" font-size="20" font-weight="800">1</text>
    <text x="115" y="1050" text-anchor="middle" fill="#888" font-size="9">Query</text>
    <text x="192" y="1040" text-anchor="middle" fill="#3b82f6" font-size="16" font-weight="700">&#8594;</text>
  </g>
  <g opacity="0"><animate attributeName="opacity" from="0" to="1" dur="0.5s" begin="5.6s" fill="freeze"/>
    <rect x="210" y="1005" width="140" height="60" rx="10" fill="#1a2e1a" stroke="#2d6a4f" stroke-width="1"/>
    <text x="280" y="1030" text-anchor="middle" fill="#6ee7b7" font-size="16" font-weight="800">10,000</text>
    <text x="280" y="1050" text-anchor="middle" fill="#888" font-size="9">QJL Hamming scan</text>
    <text x="367" y="1040" text-anchor="middle" fill="#3b82f6" font-size="16" font-weight="700">&#8594;</text>
  </g>
  <g opacity="0"><animate attributeName="opacity" from="0" to="1" dur="0.5s" begin="6s" fill="freeze"/>
    <rect x="385" y="1005" width="140" height="60" rx="10" fill="#1e3050" stroke="#3b82f6" stroke-width="1"/>
    <text x="455" y="1030" text-anchor="middle" fill="#60a5fa" font-size="16" font-weight="800">200</text>
    <text x="455" y="1050" text-anchor="middle" fill="#888" font-size="9">TurboQuant_mse re-rank</text>
    <text x="542" y="1040" text-anchor="middle" fill="#3b82f6" font-size="16" font-weight="700">&#8594;</text>
  </g>
  <g opacity="0"><animate attributeName="opacity" from="0" to="1" dur="0.5s" begin="6.4s" fill="freeze"/>
    <rect x="560" y="1005" width="120" height="60" rx="10" fill="#2e1a3e" stroke="#6b2158" stroke-width="1"/>
    <text x="620" y="1030" text-anchor="middle" fill="#a78bfa" font-size="20" font-weight="800">10</text>
    <text x="620" y="1050" text-anchor="middle" fill="#888" font-size="9">Final results</text>
  </g>

  <g opacity="0"><animate attributeName="opacity" from="0" to="1" dur="0.5s" begin="6.8s" fill="freeze"/>
    <rect x="55" y="1080" width="690" height="55" rx="8" fill="#16161e"/>
    <line x1="55" y1="1080" x2="55" y2="1135" stroke="#a78bfa" stroke-width="3"/>
    <text x="72" y="1097" fill="#aaa" font-size="10">QJL eliminates 98% of candidates with XOR + popcount — nanoseconds per vector.</text>
    <text x="72" y="1112" fill="#aaa" font-size="10">TurboQuant_mse re-ranks 200 survivors with near-optimal accuracy (MSE &#8804; 0.038 at 3-bit).</text>
    <text x="72" y="1127" fill="#666" font-size="10">Result: near-exact recall at a fraction of brute-force cost.</text>
  </g>

  <!-- ===== SECTION 4: Size Comparison ===== -->
  <g opacity="0"><animate attributeName="opacity" from="0" to="1" dur="0.5s" begin="7.2s" fill="freeze"/>
    <text x="400" y="1185" text-anchor="middle" fill="#888" font-size="12" font-weight="600">Memory per vector (384 dimensions)</text>

    <rect x="60" y="1200" width="660" height="24" rx="4" fill="#5c1a1a"/>
    <text x="70" y="1216" fill="#f87171" font-size="10" font-weight="600">float32: 1,536 bytes</text>

    <rect x="60" y="1233" width="63" height="24" rx="4" fill="#1e3050"/>
    <text x="132" y="1249" fill="#60a5fa" font-size="10" font-weight="600">TurboQuant_mse 3-bit: 148 B</text>

    <rect x="60" y="1266" width="21" height="24" rx="4" fill="#1a3a2a"/>
    <text x="90" y="1282" fill="#6ee7b7" font-size="10" font-weight="600">QJL 1-bit: 48 bytes</text>

    <text x="400" y="1320" text-anchor="middle" fill="#444" font-size="10">10,000 docs: 15 MB raw &#8594; 1.9 MB compressed (QJL + TurboQuant_mse 3-bit)</text>
  </g>

  <!-- Citations -->
  <g opacity="0"><animate attributeName="opacity" from="0" to="1" dur="0.5s" begin="7.8s" fill="freeze"/>
    <rect x="55" y="1345" width="690" height="52" rx="8" fill="#16161e"/>
    <text x="72" y="1363" fill="#666" font-size="9">Based on: Zandieh et al. "TurboQuant" (arXiv:2504.19874, 2025), "QJL" (arXiv:2406.03482, 2024)</text>
    <text x="72" y="1378" fill="#666" font-size="9">Also includes: Han et al. "PolarQuant" (arXiv:2502.02617, 2025)</text>
  </g>

  <!-- Footer -->
  <text x="400" y="1430" text-anchor="middle" fill="#333" font-size="10">turboquant-rs</text>
</svg>
